<svg width="1600" height="980" viewBox="0 0 1600 980" fill="none" xmlns="http://www.w3.org/2000/svg">
  <rect width="1600" height="980" rx="32" fill="#F8FAFC"/>
  <rect x="60" y="60" width="1480" height="860" rx="28" fill="#FFFFFF" stroke="#E2E8F0" stroke-width="4"/>

  <rect x="60" y="60" width="1480" height="84" rx="28" fill="#111827"/>
  <circle cx="108" cy="102" r="9" fill="#F87171"/>
  <circle cx="136" cy="102" r="9" fill="#FBBF24"/>
  <circle cx="164" cy="102" r="9" fill="#34D399"/>
  <text x="800" y="110" text-anchor="middle" font-family="Arial, sans-serif" font-size="34" font-weight="700" fill="#FFFFFF">LINE Developers Console (mock)</text>

  <rect x="110" y="190" width="260" height="620" rx="24" fill="#F8FAFC" stroke="#E2E8F0" stroke-width="3"/>
  <text x="180" y="250" font-family="Arial, sans-serif" font-size="28" font-weight="700" fill="#0F172A">Provider</text>
  <rect x="140" y="284" width="200" height="60" rx="16" fill="#DBEAFE"/>
  <text x="240" y="322" text-anchor="middle" font-family="Arial, sans-serif" font-size="24" font-weight="700" fill="#1D4ED8">Your team</text>
  <text x="160" y="410" font-family="Arial, sans-serif" font-size="24" font-weight="700" fill="#0F172A">Channels</text>
  <rect x="140" y="444" width="200" height="72" rx="18" fill="#DCFCE7"/>
  <text x="240" y="486" text-anchor="middle" font-family="Arial, sans-serif" font-size="24" font-weight="700" fill="#166534">Messaging API</text>
  <rect x="140" y="540" width="200" height="52" rx="14" fill="#F1F5F9"/>
  <text x="240" y="573" text-anchor="middle" font-family="Arial, sans-serif" font-size="22" fill="#475569">Basic settings</text>
  <rect x="140" y="608" width="200" height="52" rx="14" fill="#FFF7ED"/>
  <text x="240" y="641" text-anchor="middle" font-family="Arial, sans-serif" font-size="22" font-weight="700" fill="#9A3412">Messaging API tab</text>

  <rect x="430" y="190" width="980" height="620" rx="24" fill="#FFFFFF"/>
  <text x="490" y="252" font-family="Arial, sans-serif" font-size="34" font-weight="700" fill="#0F172A">What you need to copy</text>

  <text x="490" y="332" font-family="Arial, sans-serif" font-size="24" font-weight="700" fill="#334155">Channel secret</text>
  <rect x="490" y="350" width="860" height="72" rx="18" fill="#F8FAFC" stroke="#CBD5E1" stroke-width="3"/>
  <text x="530" y="394" font-family="Courier New, monospace" font-size="26" fill="#0F172A">e2bd4c8d6f9f....</text>
  <rect x="1270" y="365" width="56" height="42" rx="10" fill="#E0E7FF"/>
  <text x="1298" y="393" text-anchor="middle" font-family="Arial, sans-serif" font-size="18" font-weight="700" fill="#3730A3">copy</text>

  <text x="490" y="478" font-family="Arial, sans-serif" font-size="24" font-weight="700" fill="#334155">Channel access token</text>
  <rect x="490" y="496" width="860" height="72" rx="18" fill="#F8FAFC" stroke="#CBD5E1" stroke-width="3"/>
  <text x="530" y="540" font-family="Courier New, monospace" font-size="24" fill="#0F172A">LINE_CHANNEL_ACCESS_TOKEN.....</text>
  <rect x="1152" y="511" width="174" height="42" rx="10" fill="#DCFCE7"/>
  <text x="1239" y="539" text-anchor="middle" font-family="Arial, sans-serif" font-size="18" font-weight="700" fill="#166534">issue / copy</text>

  <text x="490" y="624" font-family="Arial, sans-serif" font-size="24" font-weight="700" fill="#334155">Use webhook</text>
  <rect x="490" y="642" width="112" height="52" rx="26" fill="#06C755"/>
  <circle cx="566" cy="668" r="22" fill="#FFFFFF"/>
  <text x="628" y="675" font-family="Arial, sans-serif" font-size="24" font-weight="700" fill="#166534">ON</text>

  <text x="760" y="624" font-family="Arial, sans-serif" font-size="24" font-weight="700" fill="#334155">Webhook URL</text>
  <rect x="760" y="642" width="590" height="52" rx="14" fill="#F8FAFC" stroke="#CBD5E1" stroke-width="3"/>
  <text x="788" y="675" font-family="Courier New, monospace" font-size="21" fill="#0F172A">https://line.example.com/line/webhook</text>

  <rect x="1160" y="732" width="190" height="48" rx="14" fill="#111827"/>
  <text x="1255" y="763" text-anchor="middle" font-family="Arial, sans-serif" font-size="22" font-weight="700" fill="#FFFFFF">Verify</text>

  <path d="M388 642C420 642 438 642 458 642" stroke="#F97316" stroke-width="8" stroke-linecap="round" stroke-dasharray="14 14"/>
  <path d="M450 620L490 642L450 664" stroke="#F97316" stroke-width="8" stroke-linecap="round" stroke-linejoin="round"/>

  <rect x="430" y="832" width="980" height="56" rx="18" fill="#FFFBEB" stroke="#FCD34D" stroke-width="2"/>
  <text x="920" y="867" text-anchor="middle" font-family="Arial, sans-serif" font-size="24" fill="#92400E">Also disable Greeting messages and Auto-reply messages in Official Account Manager.</text>
</svg>
