<svg width="1600" height="900" viewBox="0 0 1600 900" fill="none" xmlns="http://www.w3.org/2000/svg">
  <rect width="1600" height="900" rx="32" fill="#F8FAFC"/>
  <rect x="60" y="60" width="1480" height="780" rx="28" fill="url(#bg)"/>

  <rect x="120" y="240" width="250" height="420" rx="36" fill="#111827"/>
  <rect x="140" y="270" width="210" height="360" rx="26" fill="#E5F7EF"/>
  <rect x="170" y="320" width="150" height="54" rx="18" fill="#06C755"/>
  <text x="245" y="354" text-anchor="middle" font-family="Arial, sans-serif" font-size="28" font-weight="700" fill="#FFFFFF">LINE App</text>
  <rect x="168" y="402" width="134" height="34" rx="12" fill="#FFFFFF"/>
  <rect x="168" y="452" width="104" height="34" rx="12" fill="#D1FAE5"/>
  <rect x="206" y="692" width="78" height="10" rx="5" fill="#374151"/>
  <text x="245" y="612" text-anchor="middle" font-family="Arial, sans-serif" font-size="26" fill="#0F172A">User</text>

  <rect x="450" y="248" width="290" height="170" rx="28" fill="#FFFFFF" stroke="#D1D5DB" stroke-width="3"/>
  <circle cx="520" cy="332" r="38" fill="#06C755"/>
  <path d="M500 332C500 316.536 512.536 304 528 304H542C557.464 304 570 316.536 570 332C570 347.464 557.464 360 542 360H538L518 374L524 360H528C512.536 360 500 347.464 500 332Z" fill="#FFFFFF"/>
  <text x="610" y="314" font-family="Arial, sans-serif" font-size="30" font-weight="700" fill="#0F172A">LINE Platform</text>
  <text x="610" y="355" font-family="Arial, sans-serif" font-size="24" fill="#475569">Official Account +</text>
  <text x="610" y="390" font-family="Arial, sans-serif" font-size="24" fill="#475569">Messaging API</text>

  <rect x="450" y="490" width="290" height="170" rx="28" fill="#FFFFFF" stroke="#D1D5DB" stroke-width="3"/>
  <rect x="492" y="530" width="206" height="34" rx="10" fill="#DBEAFE"/>
  <rect x="492" y="580" width="164" height="24" rx="8" fill="#E2E8F0"/>
  <rect x="492" y="620" width="126" height="24" rx="8" fill="#E2E8F0"/>
  <text x="595" y="468" text-anchor="middle" font-family="Arial, sans-serif" font-size="30" font-weight="700" fill="#0F172A">Public HTTPS</text>
  <text x="595" y="515" text-anchor="middle" font-family="Arial, sans-serif" font-size="24" fill="#475569">/line/webhook only</text>

  <rect x="820" y="220" width="320" height="470" rx="30" fill="#FFFFFF" stroke="#CBD5E1" stroke-width="3"/>
  <rect x="856" y="264" width="248" height="56" rx="16" fill="#FFF7ED"/>
  <text x="980" y="300" text-anchor="middle" font-family="Arial, sans-serif" font-size="28" font-weight="700" fill="#9A3412">OpenClaw Gateway</text>
  <rect x="856" y="354" width="248" height="84" rx="18" fill="#EEF2FF"/>
  <text x="980" y="388" text-anchor="middle" font-family="Arial, sans-serif" font-size="24" font-weight="700" fill="#3730A3">@openclaw/line</text>
  <text x="980" y="422" text-anchor="middle" font-family="Arial, sans-serif" font-size="20" fill="#475569">verify signature + route event</text>
  <rect x="856" y="474" width="248" height="84" rx="18" fill="#ECFCCB"/>
  <text x="980" y="508" text-anchor="middle" font-family="Arial, sans-serif" font-size="24" font-weight="700" fill="#3F6212">Agent Runtime</text>
  <text x="980" y="542" text-anchor="middle" font-family="Arial, sans-serif" font-size="20" fill="#475569">model + tools + memory</text>
  <rect x="856" y="594" width="248" height="56" rx="16" fill="#F1F5F9"/>
  <text x="980" y="628" text-anchor="middle" font-family="Arial, sans-serif" font-size="22" fill="#334155">localhost:18789</text>

  <rect x="1220" y="220" width="260" height="180" rx="28" fill="#FFF1F2" stroke="#FDA4AF" stroke-width="3"/>
  <text x="1350" y="276" text-anchor="middle" font-family="Arial, sans-serif" font-size="32" font-weight="700" fill="#9F1239">Dashboard</text>
  <text x="1350" y="322" text-anchor="middle" font-family="Arial, sans-serif" font-size="24" fill="#881337">private only</text>
  <text x="1350" y="360" text-anchor="middle" font-family="Arial, sans-serif" font-size="22" fill="#475569">localhost / SSH / tailnet</text>

  <rect x="1220" y="468" width="260" height="180" rx="28" fill="#FFFBEB" stroke="#F59E0B" stroke-width="3"/>
  <text x="1350" y="526" text-anchor="middle" font-family="Arial, sans-serif" font-size="32" font-weight="700" fill="#92400E">Webhook</text>
  <text x="1350" y="570" text-anchor="middle" font-family="Arial, sans-serif" font-size="24" fill="#B45309">public HTTPS</text>
  <text x="1350" y="608" text-anchor="middle" font-family="Arial, sans-serif" font-size="22" fill="#475569">safe to expose</text>

  <path d="M370 455H430" stroke="#0F172A" stroke-width="10" stroke-linecap="round"/>
  <path d="M422 430L450 455L422 480" stroke="#0F172A" stroke-width="10" stroke-linecap="round" stroke-linejoin="round"/>

  <path d="M740 332H800" stroke="#0F172A" stroke-width="10" stroke-linecap="round"/>
  <path d="M792 307L820 332L792 357" stroke="#0F172A" stroke-width="10" stroke-linecap="round" stroke-linejoin="round"/>

  <path d="M740 575H800" stroke="#0F172A" stroke-width="10" stroke-linecap="round"/>
  <path d="M792 550L820 575L792 600" stroke="#0F172A" stroke-width="10" stroke-linecap="round" stroke-linejoin="round"/>

  <path d="M1140 555H1200" stroke="#0F172A" stroke-width="10" stroke-linecap="round"/>
  <path d="M1192 530L1220 555L1192 580" stroke="#0F172A" stroke-width="10" stroke-linecap="round" stroke-linejoin="round"/>

  <path d="M1140 330H1200" stroke="#DC2626" stroke-width="10" stroke-linecap="round" stroke-dasharray="20 18"/>
  <path d="M1192 305L1220 330L1192 355" stroke="#DC2626" stroke-width="10" stroke-linecap="round" stroke-linejoin="round"/>

  <text x="1170" y="292" text-anchor="middle" font-family="Arial, sans-serif" font-size="22" font-weight="700" fill="#DC2626">do not expose</text>
  <text x="766" y="316" text-anchor="middle" font-family="Arial, sans-serif" font-size="20" fill="#475569">events</text>
  <text x="766" y="558" text-anchor="middle" font-family="Arial, sans-serif" font-size="20" fill="#475569">HTTPS</text>

  <defs>
    <linearGradient id="bg" x1="60" y1="60" x2="1540" y2="840" gradientUnits="userSpaceOnUse">
      <stop stop-color="#ECFEFF"/>
      <stop offset="1" stop-color="#FFF7ED"/>
    </linearGradient>
  </defs>
</svg>
