<svg width="1600" height="940" viewBox="0 0 1600 940" fill="none" xmlns="http://www.w3.org/2000/svg">
  <rect width="1600" height="940" rx="32" fill="#F8FAFC"/>
  <rect x="60" y="60" width="1480" height="820" rx="30" fill="url(#bg)"/>

  <rect x="120" y="170" width="380" height="620" rx="40" fill="#111827"/>
  <rect x="145" y="200" width="330" height="560" rx="28" fill="#E5F7EF"/>
  <rect x="190" y="252" width="190" height="56" rx="18" fill="#06C755"/>
  <text x="285" y="289" text-anchor="middle" font-family="Arial, sans-serif" font-size="28" font-weight="700" fill="#FFFFFF">LINE chat</text>
  <rect x="175" y="360" width="170" height="72" rx="22" fill="#FFFFFF"/>
  <text x="260" y="404" text-anchor="middle" font-family="Arial, sans-serif" font-size="24" fill="#0F172A">hello</text>
  <rect x="210" y="472" width="225" height="118" rx="24" fill="#DCFCE7"/>
  <text x="322" y="515" text-anchor="middle" font-family="Arial, sans-serif" font-size="22" font-weight="700" fill="#166534">pairing required</text>
  <text x="322" y="555" text-anchor="middle" font-family="Arial, sans-serif" font-size="32" font-weight="700" fill="#166534">482913</text>
  <text x="322" y="588" text-anchor="middle" font-family="Arial, sans-serif" font-size="18" fill="#475569">approve this code on the host</text>

  <rect x="640" y="210" width="360" height="540" rx="30" fill="#FFFFFF" stroke="#CBD5E1" stroke-width="3"/>
  <text x="820" y="280" text-anchor="middle" font-family="Arial, sans-serif" font-size="34" font-weight="700" fill="#0F172A">OpenClaw host</text>
  <rect x="700" y="340" width="240" height="70" rx="18" fill="#F8FAFC"/>
  <text x="820" y="384" text-anchor="middle" font-family="Courier New, monospace" font-size="24" fill="#0F172A">openclaw pairing</text>
  <rect x="700" y="450" width="240" height="70" rx="18" fill="#EEF2FF"/>
  <text x="820" y="494" text-anchor="middle" font-family="Courier New, monospace" font-size="22" fill="#3730A3">list line</text>
  <rect x="700" y="560" width="240" height="94" rx="18" fill="#FFF7ED"/>
  <text x="820" y="602" text-anchor="middle" font-family="Courier New, monospace" font-size="22" fill="#9A3412">approve line</text>
  <text x="820" y="634" text-anchor="middle" font-family="Courier New, monospace" font-size="28" font-weight="700" fill="#9A3412">482913</text>

  <rect x="1140" y="244" width="320" height="220" rx="30" fill="#EEF2FF" stroke="#A5B4FC" stroke-width="3"/>
  <text x="1300" y="310" text-anchor="middle" font-family="Arial, sans-serif" font-size="34" font-weight="700" fill="#3730A3">DM policy</text>
  <text x="1300" y="356" text-anchor="middle" font-family="Arial, sans-serif" font-size="28" fill="#475569">pairing</text>
  <text x="1300" y="398" text-anchor="middle" font-family="Arial, sans-serif" font-size="22" fill="#475569">safe first step</text>

  <rect x="1140" y="520" width="320" height="180" rx="30" fill="#ECFCCB" stroke="#A3E635" stroke-width="3"/>
  <text x="1300" y="582" text-anchor="middle" font-family="Arial, sans-serif" font-size="34" font-weight="700" fill="#3F6212">After approve</text>
  <text x="1300" y="628" text-anchor="middle" font-family="Arial, sans-serif" font-size="24" fill="#475569">next messages go</text>
  <text x="1300" y="664" text-anchor="middle" font-family="Arial, sans-serif" font-size="24" fill="#475569">straight to the agent</text>

  <path d="M500 520H600" stroke="#0F172A" stroke-width="10" stroke-linecap="round"/>
  <path d="M590 495L640 520L590 545" stroke="#0F172A" stroke-width="10" stroke-linecap="round" stroke-linejoin="round"/>

  <path d="M1000 610H1100" stroke="#16A34A" stroke-width="10" stroke-linecap="round"/>
  <path d="M1090 585L1140 610L1090 635" stroke="#16A34A" stroke-width="10" stroke-linecap="round" stroke-linejoin="round"/>

  <path d="M1000 356H1100" stroke="#F97316" stroke-width="10" stroke-linecap="round" stroke-dasharray="18 16"/>
  <path d="M1090 331L1140 356L1090 381" stroke="#F97316" stroke-width="10" stroke-linecap="round" stroke-linejoin="round"/>

  <defs>
    <linearGradient id="bg" x1="60" y1="60" x2="1540" y2="880" gradientUnits="userSpaceOnUse">
      <stop stop-color="#EFF6FF"/>
      <stop offset="1" stop-color="#FDF2F8"/>
    </linearGradient>
  </defs>
</svg>
