<svg width="1200" height="630" viewBox="0 0 1200 630" fill="none" xmlns="http://www.w3.org/2000/svg">
  <rect width="1200" height="630" fill="#08111A"/>
  <defs>
    <linearGradient id="accent" x1="144" y1="112" x2="1018" y2="520" gradientUnits="userSpaceOnUse">
      <stop stop-color="#06C755"/>
      <stop offset="1" stop-color="#5EEAD4"/>
    </linearGradient>
  </defs>
  <rect x="68" y="68" width="1064" height="494" rx="34" fill="#0F172A" stroke="#1E293B" stroke-width="2"/>
  <text x="112" y="150" fill="white" font-size="48" font-family="Arial, Helvetica, sans-serif" font-weight="700">OpenClaw × WhatsApp</text>
  <text x="112" y="196" fill="#94A3B8" font-size="28" font-family="Arial, Helvetica, sans-serif">When bundle chunks stop sharing state</text>

  <rect x="112" y="238" width="300" height="152" rx="24" fill="#111827" stroke="#334155" stroke-width="2"/>
  <text x="148" y="290" fill="white" font-size="30" font-family="Arial, Helvetica, sans-serif" font-weight="700">monitor chunk</text>
  <circle cx="164" cy="332" r="10" fill="#22C55E"/>
  <text x="188" y="340" fill="#CDEDD8" font-size="24" font-family="Arial, Helvetica, sans-serif">listener registered</text>

  <rect x="788" y="238" width="300" height="152" rx="24" fill="#111827" stroke="#334155" stroke-width="2"/>
  <text x="834" y="290" fill="white" font-size="30" font-family="Arial, Helvetica, sans-serif" font-weight="700">send chunk</text>
  <circle cx="840" cy="332" r="10" fill="#FB7185"/>
  <text x="864" y="340" fill="#FBC9D2" font-size="24" font-family="Arial, Helvetica, sans-serif">listener missing</text>

  <rect x="452" y="244" width="108" height="64" rx="18" fill="#172033" stroke="#334155" stroke-width="2"/>
  <text x="477" y="284" fill="#CBD5E1" font-size="24" font-family="Arial, Helvetica, sans-serif">store A</text>
  <rect x="640" y="244" width="108" height="64" rx="18" fill="#172033" stroke="#334155" stroke-width="2"/>
  <text x="665" y="284" fill="#CBD5E1" font-size="24" font-family="Arial, Helvetica, sans-serif">store B</text>

  <path d="M412 314H452" stroke="#64748B" stroke-width="8" stroke-linecap="round"/>
  <path d="M748 314H788" stroke="#64748B" stroke-width="8" stroke-linecap="round"/>
  <path d="M560 276H640" stroke="#FB7185" stroke-width="8" stroke-linecap="round" stroke-dasharray="12 12"/>

  <rect x="288" y="444" width="624" height="82" rx="24" fill="#10251A" stroke="url(#accent)" stroke-width="2"/>
  <text x="420" y="480" fill="#5EEAD4" font-size="24" font-family="Arial, Helvetica, sans-serif">Fix: globalThis + Symbol.for(...)</text>
  <text x="376" y="512" fill="white" font-size="34" font-family="Arial, Helvetica, sans-serif" font-weight="700">one runtime, one listener store</text>

  <path d="M262 392C262 438 322 450 362 450" stroke="url(#accent)" stroke-width="8" stroke-linecap="round"/>
  <path d="M938 392C938 438 878 450 838 450" stroke="url(#accent)" stroke-width="8" stroke-linecap="round"/>
</svg>
