<svg width="1200" height="630" viewBox="0 0 1200 630" fill="none" xmlns="http://www.w3.org/2000/svg">
  <defs>
    <linearGradient id="bg" x1="0" y1="0" x2="1200" y2="630" gradientUnits="userSpaceOnUse">
      <stop stop-color="#0B1020"/>
      <stop offset="1" stop-color="#111827"/>
    </linearGradient>
    <linearGradient id="accent" x1="160" y1="120" x2="1040" y2="510" gradientUnits="userSpaceOnUse">
      <stop stop-color="#60A5FA"/>
      <stop offset="1" stop-color="#34D399"/>
    </linearGradient>
  </defs>
  <rect width="1200" height="630" rx="32" fill="url(#bg)"/>
  <rect x="72" y="72" width="1056" height="486" rx="24" fill="#0F172A" stroke="#1F2937" stroke-width="2"/>
  <path d="M140 204H500" stroke="#1E293B" stroke-width="2"/>
  <path d="M140 250H420" stroke="#1E293B" stroke-width="2"/>
  <path d="M140 296H470" stroke="#1E293B" stroke-width="2"/>
  <path d="M700 186H980" stroke="#1E293B" stroke-width="2"/>
  <path d="M700 232H1060" stroke="#1E293B" stroke-width="2"/>
  <path d="M700 278H920" stroke="#1E293B" stroke-width="2"/>
  <rect x="124" y="144" width="424" height="204" rx="18" fill="#111827" stroke="#334155" stroke-width="2"/>
  <rect x="652" y="144" width="424" height="204" rx="18" fill="#111827" stroke="#334155" stroke-width="2"/>
  <text x="156" y="188" fill="#93C5FD" font-family="ui-monospace, SFMono-Regular, Menlo, monospace" font-size="24">Local</text>
  <text x="684" y="188" fill="#86EFAC" font-family="ui-monospace, SFMono-Regular, Menlo, monospace" font-size="24">Production</text>
  <text x="156" y="236" fill="#E5E7EB" font-family="ui-monospace, SFMono-Regular, Menlo, monospace" font-size="28">/img/cover.png</text>
  <text x="684" y="236" fill="#FCA5A5" font-family="ui-monospace, SFMono-Regular, Menlo, monospace" font-size="28">404 /img/cover.png</text>
  <text x="684" y="284" fill="#E5E7EB" font-family="ui-monospace, SFMono-Regular, Menlo, monospace" font-size="28">needs /docs/img/cover.png</text>
  <path d="M550 246H630" stroke="url(#accent)" stroke-width="8" stroke-linecap="round"/>
  <path d="M607 224L631 246L607 268" stroke="url(#accent)" stroke-width="8" stroke-linecap="round" stroke-linejoin="round"/>
  <text x="120" y="430" fill="#F9FAFB" font-family="system-ui, -apple-system, BlinkMacSystemFont, 'Segoe UI', sans-serif" font-size="56" font-weight="700">Works locally. Breaks after deploy.</text>
  <text x="120" y="486" fill="#9CA3AF" font-family="system-ui, -apple-system, BlinkMacSystemFont, 'Segoe UI', sans-serif" font-size="30">Usually not dark magic. Usually your paths.</text>
  <rect x="120" y="514" width="210" height="44" rx="22" fill="#111827" stroke="#334155"/>
  <text x="146" y="542" fill="#93C5FD" font-family="ui-monospace, SFMono-Regular, Menlo, monospace" font-size="22">baseUrl / asset path</text>
</svg>